# xmcd
#
# Track frame offsets: 
#        150
#        15218
#        29295
#        43637
#        58505
#        69941
#        86839
#        101445
#        116147
#        129826
#        143238
#        154623
#        166732
#        178719
#        190410
#        203034
#        216383
#        229800
#        244446
#        259608
#        273009
#        286109
#        300193
#        320351
#        335527
#
# Disc length: 4663 seconds
#
# Revision: 0
# Processed by: cddbd v1.5.2PL0 Copyright (c) Steve Scherf et al.
# Submitted via: ExactAudioCopy v0.95b4
#
DISCID=53123519
DTITLE=Various Artist - Les Plus Belles Chansons du Cinema RETRO CD1
DYEAR=2004
DGENRE=Chanson
TTITLE0=Les feuilles mortes  - Yves Montand
TTITLE1=La vie en rose  - Edith Piaf
TTITLE2=Que reste-t-il de nos amours ?  - Charles Trenet
TTITLE3=Le premier rendez-vous  - Cdanielle Darrieux
TTITLE4=Un dur, un vrai, un tatoué  - Fernandel
TTITLE5=Tout là-bas  - Chales Boyer
TTITLE6=Comme de bien entendu  - Arletty and Michel Simon
TTITLE7=Quand on s'promène au bord de l'eau  - Jean Gabin
TTITLE8=Coeur de paris  - Andre Claveau
TTITLE9=La tactique du gendarme  - Bourvil
TTITLE10=La vie est courte  - Lucien Baroux
TTITLE11=Si toi aussi tu m'abandonnes  - John William
TTITLE12=Tiens, tiens, tiens  - Ray Ventura
TTITLE13=Avec son tralala  - Suzy Delair
TTITLE14=L'aventure est au coin de la rue  - Mona Goya
TTITLE15=Plus rien, je n'ai plus rien qu'un chien  - Jean Sablon
TTITLE16=Qu'est-ce que tu dis d'ça ?  - Jean Gabin
TTITLE17=Bonsoir, jolie madame  - Charles Trenet
TTITLE18=Le paradis perdu  - Lucienne Delyle
TTITLE19=Oui, je suis de paris  - Mistinguett
TTITLE20=Elle est épatante  - Michel Simon
TTITLE21=Marinella  - Tino Rossi
TTITLE22=La romance de la pluie  - Maruice Chevalier
TTITLE23=Rosa, nina, stella  - George Guetary
TTITLE24=Où est-il donc ?  - Frehel
EXTD=
EXTT0=
EXTT1=
EXTT2=
EXTT3=
EXTT4=
EXTT5=
EXTT6=
EXTT7=
EXTT8=
EXTT9=
EXTT10=
EXTT11=
EXTT12=
EXTT13=
EXTT14=
EXTT15=
EXTT16=
EXTT17=
EXTT18=
EXTT19=
EXTT20=
EXTT21=
EXTT22=
EXTT23=
EXTT24=
PLAYORDER=
